<?xml version="1.0" encoding="UTF-8"?>
<svg xmlns="http://www.w3.org/2000/svg" width="1381" height="281" viewBox="91 195 1381 281" role="img" aria-label="mByte logo">
  <path d="M 969.0 376.0 L 970.0 375.0 L 970.0 373.0 L 972.0 371.0 L 973.0 371.0 L 974.0 370.0 L 986.0 370.0 L 987.0 371.0 L 987.0 377.0 L 986.0 378.0 L 986.0 379.0 L 983.0 382.0 L 982.0 382.0 L 981.0 383.0 L 974.0 383.0 L 973.0 382.0 L 972.0 382.0 L 970.0 380.0 L 970.0 378.0 L 969.0 377.0 Z
M 896.0 375.0 L 897.0 374.0 L 897.0 373.0 L 899.0 371.0 L 900.0 371.0 L 901.0 370.0 L 913.0 370.0 L 914.0 371.0 L 914.0 377.0 L 913.0 378.0 L 913.0 379.0 L 910.0 382.0 L 909.0 382.0 L 908.0 383.0 L 901.0 383.0 L 900.0 382.0 L 899.0 382.0 L 897.0 380.0 L 897.0 378.0 L 896.0 377.0 Z
M 1268.0 355.0 L 1275.0 355.0 L 1276.0 356.0 L 1277.0 356.0 L 1280.0 359.0 L 1280.0 361.0 L 1281.0 362.0 L 1281.0 375.0 L 1280.0 376.0 L 1280.0 378.0 L 1279.0 379.0 L 1279.0 380.0 L 1274.0 383.0 L 1270.0 383.0 L 1269.0 382.0 L 1268.0 382.0 L 1264.0 378.0 L 1264.0 376.0 L 1263.0 375.0 L 1263.0 362.0 L 1264.0 361.0 L 1264.0 359.0 Z
M 1161.0 355.0 L 1168.0 355.0 L 1172.0 359.0 L 1172.0 360.0 L 1173.0 361.0 L 1173.0 376.0 L 1172.0 377.0 L 1171.0 380.0 L 1169.0 382.0 L 1168.0 382.0 L 1167.0 383.0 L 1162.0 383.0 L 1161.0 382.0 L 1160.0 382.0 L 1156.0 378.0 L 1156.0 360.0 L 1157.0 359.0 L 1157.0 358.0 L 1159.0 356.0 L 1160.0 356.0 Z
M 1123.0 355.0 L 1129.0 355.0 L 1130.0 356.0 L 1131.0 356.0 L 1133.0 358.0 L 1133.0 359.0 L 1134.0 360.0 L 1134.0 362.0 L 1135.0 363.0 L 1135.0 372.0 L 1134.0 373.0 L 1134.0 375.0 L 1133.0 376.0 L 1133.0 377.0 L 1131.0 379.0 L 1130.0 379.0 L 1129.0 380.0 L 1123.0 380.0 L 1119.0 376.0 L 1119.0 373.0 L 1118.0 372.0 L 1118.0 362.0 L 1119.0 361.0 L 1119.0 359.0 Z
M 1081.0 361.0 L 1082.0 360.0 L 1082.0 359.0 L 1086.0 355.0 L 1094.0 355.0 L 1097.0 358.0 L 1097.0 359.0 L 1098.0 360.0 L 1098.0 365.0 L 1097.0 366.0 L 1082.0 366.0 L 1081.0 365.0 Z
M 866.0 355.0 L 872.0 355.0 L 873.0 356.0 L 874.0 356.0 L 876.0 358.0 L 876.0 359.0 L 877.0 360.0 L 877.0 370.0 L 878.0 371.0 L 877.0 372.0 L 877.0 378.0 L 873.0 382.0 L 872.0 382.0 L 871.0 383.0 L 867.0 383.0 L 866.0 382.0 L 865.0 382.0 L 861.0 377.0 L 861.0 361.0 L 862.0 360.0 L 862.0 359.0 Z
M 1303.0 350.0 L 1302.0 351.0 L 1300.0 351.0 L 1296.0 355.0 L 1296.0 356.0 L 1295.0 357.0 L 1295.0 363.0 L 1296.0 364.0 L 1297.0 367.0 L 1302.0 370.0 L 1304.0 370.0 L 1305.0 371.0 L 1310.0 371.0 L 1311.0 372.0 L 1314.0 372.0 L 1317.0 375.0 L 1317.0 379.0 L 1315.0 382.0 L 1313.0 382.0 L 1312.0 383.0 L 1305.0 383.0 L 1304.0 382.0 L 1303.0 382.0 L 1300.0 379.0 L 1300.0 378.0 L 1294.0 378.0 L 1294.0 379.0 L 1295.0 380.0 L 1295.0 382.0 L 1299.0 386.0 L 1300.0 386.0 L 1301.0 387.0 L 1303.0 387.0 L 1304.0 388.0 L 1314.0 388.0 L 1315.0 387.0 L 1317.0 387.0 L 1318.0 386.0 L 1319.0 386.0 L 1322.0 383.0 L 1322.0 382.0 L 1323.0 381.0 L 1323.0 373.0 L 1322.0 372.0 L 1322.0 371.0 L 1320.0 369.0 L 1319.0 369.0 L 1316.0 367.0 L 1314.0 367.0 L 1313.0 366.0 L 1309.0 366.0 L 1308.0 365.0 L 1305.0 365.0 L 1304.0 364.0 L 1303.0 364.0 L 1301.0 362.0 L 1301.0 358.0 L 1304.0 355.0 L 1313.0 355.0 L 1317.0 359.0 L 1322.0 359.0 L 1322.0 356.0 L 1321.0 355.0 L 1321.0 354.0 L 1319.0 352.0 L 1318.0 352.0 L 1315.0 350.0 Z
M 1267.0 350.0 L 1266.0 351.0 L 1263.0 352.0 L 1259.0 356.0 L 1259.0 357.0 L 1258.0 358.0 L 1258.0 361.0 L 1257.0 362.0 L 1257.0 375.0 L 1258.0 376.0 L 1258.0 379.0 L 1259.0 380.0 L 1260.0 383.0 L 1263.0 386.0 L 1264.0 386.0 L 1265.0 387.0 L 1267.0 387.0 L 1268.0 388.0 L 1277.0 388.0 L 1278.0 387.0 L 1281.0 386.0 L 1284.0 383.0 L 1284.0 382.0 L 1286.0 379.0 L 1286.0 376.0 L 1287.0 375.0 L 1287.0 363.0 L 1286.0 362.0 L 1286.0 359.0 L 1285.0 358.0 L 1284.0 355.0 L 1281.0 352.0 L 1280.0 352.0 L 1277.0 350.0 Z
M 1224.0 350.0 L 1224.0 355.0 L 1225.0 355.0 L 1226.0 356.0 L 1233.0 356.0 L 1234.0 355.0 L 1235.0 356.0 L 1235.0 381.0 L 1234.0 382.0 L 1223.0 382.0 L 1222.0 383.0 L 1222.0 387.0 L 1224.0 387.0 L 1225.0 388.0 L 1226.0 387.0 L 1253.0 387.0 L 1253.0 383.0 L 1252.0 382.0 L 1242.0 382.0 L 1241.0 381.0 L 1241.0 350.0 Z
M 1196.0 350.0 L 1195.0 351.0 L 1194.0 351.0 L 1192.0 353.0 L 1191.0 353.0 L 1191.0 354.0 L 1189.0 356.0 L 1189.0 357.0 L 1187.0 360.0 L 1187.0 377.0 L 1188.0 378.0 L 1188.0 380.0 L 1189.0 381.0 L 1189.0 382.0 L 1193.0 386.0 L 1194.0 386.0 L 1197.0 388.0 L 1206.0 388.0 L 1207.0 387.0 L 1209.0 387.0 L 1210.0 386.0 L 1211.0 386.0 L 1214.0 383.0 L 1214.0 382.0 L 1215.0 381.0 L 1215.0 379.0 L 1216.0 378.0 L 1216.0 375.0 L 1210.0 375.0 L 1210.0 378.0 L 1205.0 383.0 L 1199.0 383.0 L 1198.0 382.0 L 1197.0 382.0 L 1195.0 380.0 L 1195.0 379.0 L 1193.0 376.0 L 1193.0 360.0 L 1195.0 358.0 L 1195.0 357.0 L 1198.0 355.0 L 1205.0 355.0 L 1206.0 356.0 L 1207.0 356.0 L 1209.0 358.0 L 1209.0 359.0 L 1210.0 360.0 L 1210.0 362.0 L 1216.0 362.0 L 1216.0 359.0 L 1215.0 358.0 L 1214.0 355.0 L 1211.0 352.0 L 1210.0 352.0 L 1207.0 350.0 Z
M 1159.0 350.0 L 1158.0 351.0 L 1155.0 352.0 L 1153.0 354.0 L 1153.0 355.0 L 1151.0 357.0 L 1151.0 358.0 L 1150.0 359.0 L 1150.0 365.0 L 1149.0 366.0 L 1149.0 371.0 L 1150.0 372.0 L 1150.0 379.0 L 1151.0 380.0 L 1151.0 381.0 L 1153.0 383.0 L 1153.0 384.0 L 1154.0 385.0 L 1155.0 385.0 L 1157.0 387.0 L 1159.0 387.0 L 1160.0 388.0 L 1169.0 388.0 L 1170.0 387.0 L 1173.0 386.0 L 1177.0 382.0 L 1177.0 381.0 L 1178.0 380.0 L 1178.0 378.0 L 1179.0 377.0 L 1179.0 361.0 L 1178.0 360.0 L 1178.0 358.0 L 1177.0 357.0 L 1177.0 356.0 L 1172.0 351.0 L 1171.0 351.0 L 1170.0 350.0 Z
M 1140.0 350.0 L 1135.0 350.0 L 1135.0 353.0 L 1134.0 354.0 L 1131.0 351.0 L 1130.0 351.0 L 1129.0 350.0 L 1120.0 350.0 L 1119.0 351.0 L 1118.0 351.0 L 1114.0 355.0 L 1114.0 356.0 L 1113.0 357.0 L 1113.0 360.0 L 1112.0 361.0 L 1112.0 374.0 L 1113.0 375.0 L 1113.0 378.0 L 1114.0 379.0 L 1114.0 380.0 L 1118.0 384.0 L 1119.0 384.0 L 1120.0 385.0 L 1124.0 385.0 L 1125.0 386.0 L 1126.0 385.0 L 1129.0 385.0 L 1130.0 384.0 L 1131.0 384.0 L 1133.0 382.0 L 1133.0 381.0 L 1134.0 380.0 L 1135.0 381.0 L 1135.0 389.0 L 1134.0 390.0 L 1134.0 392.0 L 1132.0 394.0 L 1131.0 394.0 L 1130.0 395.0 L 1117.0 395.0 L 1117.0 400.0 L 1118.0 401.0 L 1129.0 401.0 L 1130.0 400.0 L 1133.0 400.0 L 1134.0 399.0 L 1136.0 399.0 L 1139.0 396.0 L 1139.0 395.0 L 1140.0 394.0 L 1140.0 392.0 L 1141.0 391.0 L 1141.0 351.0 Z
M 1085.0 350.0 L 1084.0 351.0 L 1082.0 351.0 L 1077.0 356.0 L 1077.0 357.0 L 1076.0 358.0 L 1076.0 361.0 L 1075.0 362.0 L 1075.0 375.0 L 1076.0 376.0 L 1076.0 379.0 L 1077.0 380.0 L 1078.0 383.0 L 1081.0 386.0 L 1082.0 386.0 L 1085.0 388.0 L 1095.0 388.0 L 1096.0 387.0 L 1099.0 386.0 L 1103.0 382.0 L 1103.0 381.0 L 1104.0 380.0 L 1104.0 378.0 L 1098.0 378.0 L 1098.0 379.0 L 1095.0 382.0 L 1094.0 382.0 L 1093.0 383.0 L 1087.0 383.0 L 1086.0 382.0 L 1085.0 382.0 L 1083.0 380.0 L 1083.0 379.0 L 1082.0 378.0 L 1082.0 376.0 L 1081.0 375.0 L 1081.0 371.0 L 1082.0 370.0 L 1104.0 370.0 L 1104.0 360.0 L 1103.0 359.0 L 1103.0 357.0 L 1102.0 356.0 L 1102.0 355.0 L 1099.0 352.0 L 1098.0 352.0 L 1095.0 350.0 Z
M 971.0 351.0 L 966.0 356.0 L 966.0 357.0 L 965.0 358.0 L 965.0 360.0 L 971.0 360.0 L 971.0 359.0 L 975.0 355.0 L 982.0 355.0 L 983.0 356.0 L 984.0 356.0 L 986.0 358.0 L 986.0 360.0 L 987.0 361.0 L 987.0 364.0 L 986.0 365.0 L 977.0 365.0 L 976.0 366.0 L 971.0 366.0 L 970.0 367.0 L 967.0 368.0 L 965.0 370.0 L 965.0 371.0 L 964.0 372.0 L 964.0 374.0 L 963.0 375.0 L 963.0 378.0 L 964.0 379.0 L 964.0 382.0 L 965.0 383.0 L 965.0 384.0 L 967.0 386.0 L 968.0 386.0 L 971.0 388.0 L 980.0 388.0 L 981.0 387.0 L 984.0 386.0 L 986.0 383.0 L 987.0 384.0 L 987.0 387.0 L 991.0 387.0 L 992.0 388.0 L 993.0 387.0 L 993.0 359.0 L 992.0 358.0 L 992.0 356.0 L 987.0 351.0 L 986.0 351.0 L 985.0 350.0 L 973.0 350.0 L 972.0 351.0 Z
M 951.0 350.0 L 942.0 350.0 L 941.0 351.0 L 940.0 351.0 L 937.0 354.0 L 936.0 353.0 L 936.0 350.0 L 930.0 350.0 L 930.0 387.0 L 936.0 387.0 L 936.0 363.0 L 937.0 362.0 L 937.0 360.0 L 938.0 359.0 L 938.0 358.0 L 940.0 356.0 L 941.0 356.0 L 942.0 355.0 L 948.0 355.0 L 952.0 359.0 L 952.0 365.0 L 953.0 365.0 L 954.0 366.0 L 957.0 366.0 L 958.0 365.0 L 958.0 357.0 L 957.0 356.0 L 957.0 355.0 L 953.0 351.0 L 952.0 351.0 Z
M 895.0 353.0 L 895.0 354.0 L 893.0 356.0 L 893.0 357.0 L 892.0 358.0 L 892.0 360.0 L 898.0 360.0 L 898.0 359.0 L 902.0 355.0 L 910.0 355.0 L 913.0 358.0 L 913.0 359.0 L 914.0 360.0 L 914.0 364.0 L 913.0 365.0 L 902.0 365.0 L 901.0 366.0 L 898.0 366.0 L 897.0 367.0 L 894.0 368.0 L 892.0 370.0 L 892.0 371.0 L 890.0 374.0 L 890.0 379.0 L 891.0 380.0 L 891.0 382.0 L 892.0 383.0 L 892.0 384.0 L 894.0 386.0 L 895.0 386.0 L 896.0 387.0 L 898.0 387.0 L 899.0 388.0 L 907.0 388.0 L 908.0 387.0 L 911.0 386.0 L 913.0 383.0 L 914.0 384.0 L 914.0 387.0 L 920.0 387.0 L 920.0 359.0 L 919.0 358.0 L 918.0 355.0 L 914.0 351.0 L 912.0 351.0 L 911.0 350.0 L 900.0 350.0 L 899.0 351.0 L 898.0 351.0 L 896.0 353.0 Z
M 875.0 350.0 L 866.0 350.0 L 864.0 352.0 L 863.0 352.0 L 861.0 355.0 L 860.0 354.0 L 860.0 350.0 L 855.0 350.0 L 855.0 401.0 L 860.0 401.0 L 861.0 400.0 L 861.0 385.0 L 862.0 384.0 L 865.0 387.0 L 867.0 387.0 L 868.0 388.0 L 874.0 388.0 L 875.0 387.0 L 877.0 387.0 L 881.0 383.0 L 881.0 382.0 L 883.0 379.0 L 883.0 370.0 L 884.0 369.0 L 884.0 366.0 L 883.0 365.0 L 883.0 359.0 L 882.0 358.0 L 882.0 357.0 L 881.0 356.0 L 880.0 353.0 Z
M 1038.0 337.0 L 1038.0 339.0 L 1037.0 340.0 L 1038.0 341.0 L 1038.0 343.0 L 1037.0 344.0 L 1037.0 386.0 L 1038.0 387.0 L 1038.0 388.0 L 1042.0 388.0 L 1043.0 387.0 L 1043.0 350.0 L 1044.0 349.0 L 1045.0 350.0 L 1045.0 352.0 L 1046.0 353.0 L 1046.0 355.0 L 1048.0 358.0 L 1048.0 360.0 L 1050.0 363.0 L 1050.0 365.0 L 1052.0 368.0 L 1052.0 370.0 L 1054.0 373.0 L 1054.0 375.0 L 1056.0 378.0 L 1056.0 380.0 L 1058.0 383.0 L 1058.0 385.0 L 1059.0 386.0 L 1059.0 387.0 L 1060.0 387.0 L 1061.0 388.0 L 1063.0 388.0 L 1064.0 387.0 L 1067.0 387.0 L 1067.0 338.0 L 1066.0 337.0 L 1061.0 337.0 L 1061.0 374.0 L 1060.0 375.0 L 1059.0 374.0 L 1059.0 372.0 L 1057.0 369.0 L 1057.0 367.0 L 1056.0 366.0 L 1056.0 364.0 L 1055.0 363.0 L 1055.0 361.0 L 1053.0 358.0 L 1053.0 356.0 L 1051.0 353.0 L 1051.0 351.0 L 1049.0 348.0 L 1049.0 346.0 L 1048.0 345.0 L 1048.0 343.0 L 1046.0 340.0 L 1046.0 338.0 L 1045.0 337.0 Z
M 1235.0 335.0 L 1233.0 338.0 L 1233.0 341.0 L 1235.0 343.0 L 1240.0 343.0 L 1242.0 341.0 L 1242.0 337.0 L 1240.0 335.0 Z
M 1296.0 304.0 L 1297.0 303.0 L 1297.0 302.0 L 1299.0 300.0 L 1300.0 300.0 L 1301.0 299.0 L 1313.0 299.0 L 1314.0 300.0 L 1314.0 306.0 L 1313.0 307.0 L 1313.0 308.0 L 1310.0 311.0 L 1308.0 311.0 L 1307.0 312.0 L 1301.0 312.0 L 1300.0 311.0 L 1299.0 311.0 L 1297.0 309.0 L 1297.0 308.0 L 1296.0 307.0 Z
M 1076.0 303.0 L 1079.0 300.0 L 1080.0 300.0 L 1081.0 299.0 L 1093.0 299.0 L 1094.0 300.0 L 1094.0 305.0 L 1093.0 306.0 L 1092.0 309.0 L 1091.0 310.0 L 1090.0 310.0 L 1088.0 312.0 L 1080.0 312.0 L 1076.0 308.0 Z
M 1444.0 284.0 L 1451.0 284.0 L 1456.0 289.0 L 1456.0 306.0 L 1455.0 307.0 L 1455.0 308.0 L 1452.0 311.0 L 1450.0 311.0 L 1449.0 312.0 L 1445.0 312.0 L 1444.0 311.0 L 1443.0 311.0 L 1440.0 308.0 L 1440.0 307.0 L 1439.0 306.0 L 1439.0 289.0 L 1440.0 288.0 L 1440.0 287.0 L 1442.0 285.0 L 1443.0 285.0 Z
M 1192.0 284.0 L 1200.0 284.0 L 1203.0 287.0 L 1203.0 288.0 L 1204.0 289.0 L 1204.0 306.0 L 1203.0 307.0 L 1203.0 308.0 L 1200.0 311.0 L 1199.0 311.0 L 1198.0 312.0 L 1194.0 312.0 L 1193.0 311.0 L 1192.0 311.0 L 1188.0 307.0 L 1188.0 305.0 L 1187.0 304.0 L 1187.0 292.0 L 1188.0 291.0 L 1188.0 289.0 L 1189.0 288.0 L 1189.0 287.0 Z
M 1224.0 290.0 L 1225.0 289.0 L 1225.0 288.0 L 1229.0 284.0 L 1231.0 284.0 L 1232.0 283.0 L 1233.0 283.0 L 1234.0 284.0 L 1237.0 284.0 L 1240.0 287.0 L 1240.0 288.0 L 1241.0 289.0 L 1241.0 294.0 L 1240.0 295.0 L 1225.0 295.0 L 1224.0 294.0 Z
M 1001.0 289.0 L 1002.0 288.0 L 1002.0 287.0 L 1004.0 285.0 L 1005.0 285.0 L 1006.0 284.0 L 1008.0 284.0 L 1009.0 283.0 L 1011.0 283.0 L 1016.0 286.0 L 1016.0 287.0 L 1018.0 290.0 L 1018.0 294.0 L 1017.0 295.0 L 1002.0 295.0 L 1001.0 294.0 Z
M 605.0 312.0 L 606.0 311.0 L 606.0 309.0 L 607.0 308.0 L 607.0 306.0 L 608.0 305.0 L 608.0 304.0 L 609.0 303.0 L 610.0 300.0 L 612.0 298.0 L 612.0 297.0 L 620.0 289.0 L 621.0 289.0 L 623.0 287.0 L 624.0 287.0 L 629.0 284.0 L 631.0 284.0 L 632.0 283.0 L 636.0 283.0 L 637.0 282.0 L 646.0 282.0 L 647.0 283.0 L 652.0 283.0 L 653.0 284.0 L 655.0 284.0 L 656.0 285.0 L 659.0 286.0 L 661.0 288.0 L 662.0 288.0 L 664.0 290.0 L 665.0 290.0 L 671.0 296.0 L 671.0 297.0 L 673.0 299.0 L 673.0 300.0 L 676.0 305.0 L 676.0 307.0 L 677.0 308.0 L 677.0 310.0 L 678.0 311.0 L 678.0 315.0 L 677.0 316.0 L 606.0 316.0 L 605.0 315.0 Z
M 1394.0 279.0 L 1394.0 280.0 L 1395.0 281.0 L 1395.0 283.0 L 1396.0 284.0 L 1396.0 286.0 L 1397.0 287.0 L 1397.0 289.0 L 1399.0 292.0 L 1399.0 294.0 L 1400.0 295.0 L 1400.0 297.0 L 1401.0 298.0 L 1401.0 300.0 L 1402.0 301.0 L 1402.0 303.0 L 1404.0 306.0 L 1404.0 308.0 L 1405.0 309.0 L 1405.0 311.0 L 1406.0 312.0 L 1406.0 314.0 L 1407.0 315.0 L 1407.0 316.0 L 1415.0 316.0 L 1415.0 314.0 L 1416.0 313.0 L 1416.0 311.0 L 1417.0 310.0 L 1417.0 308.0 L 1418.0 307.0 L 1418.0 305.0 L 1420.0 302.0 L 1420.0 300.0 L 1421.0 299.0 L 1421.0 297.0 L 1422.0 296.0 L 1422.0 294.0 L 1423.0 293.0 L 1423.0 291.0 L 1425.0 288.0 L 1425.0 286.0 L 1426.0 285.0 L 1426.0 283.0 L 1427.0 282.0 L 1427.0 279.0 L 1422.0 279.0 L 1421.0 280.0 L 1421.0 281.0 L 1420.0 282.0 L 1420.0 284.0 L 1419.0 285.0 L 1419.0 287.0 L 1418.0 288.0 L 1418.0 290.0 L 1417.0 291.0 L 1417.0 293.0 L 1416.0 294.0 L 1416.0 296.0 L 1415.0 297.0 L 1415.0 299.0 L 1414.0 300.0 L 1414.0 302.0 L 1413.0 303.0 L 1413.0 305.0 L 1412.0 306.0 L 1412.0 308.0 L 1411.0 309.0 L 1410.0 308.0 L 1410.0 306.0 L 1409.0 305.0 L 1409.0 303.0 L 1408.0 302.0 L 1408.0 300.0 L 1407.0 299.0 L 1407.0 297.0 L 1406.0 296.0 L 1406.0 294.0 L 1404.0 291.0 L 1404.0 289.0 L 1403.0 288.0 L 1403.0 286.0 L 1402.0 285.0 L 1402.0 283.0 L 1401.0 282.0 L 1401.0 280.0 L 1400.0 279.0 Z
M 1364.0 279.0 L 1363.0 280.0 L 1364.0 281.0 L 1363.0 282.0 L 1363.0 283.0 L 1365.0 285.0 L 1366.0 284.0 L 1374.0 284.0 L 1375.0 285.0 L 1375.0 310.0 L 1374.0 311.0 L 1362.0 311.0 L 1362.0 316.0 L 1392.0 316.0 L 1392.0 311.0 L 1382.0 311.0 L 1381.0 310.0 L 1381.0 280.0 L 1380.0 279.0 Z
M 1296.0 281.0 L 1292.0 286.0 L 1292.0 289.0 L 1298.0 289.0 L 1298.0 288.0 L 1302.0 284.0 L 1310.0 284.0 L 1313.0 287.0 L 1313.0 288.0 L 1314.0 289.0 L 1314.0 293.0 L 1313.0 294.0 L 1303.0 294.0 L 1302.0 295.0 L 1298.0 295.0 L 1297.0 296.0 L 1295.0 296.0 L 1291.0 300.0 L 1291.0 302.0 L 1290.0 303.0 L 1290.0 309.0 L 1291.0 310.0 L 1292.0 313.0 L 1294.0 315.0 L 1295.0 315.0 L 1296.0 316.0 L 1298.0 316.0 L 1299.0 317.0 L 1306.0 317.0 L 1307.0 316.0 L 1309.0 316.0 L 1313.0 312.0 L 1314.0 313.0 L 1314.0 316.0 L 1320.0 316.0 L 1320.0 289.0 L 1319.0 288.0 L 1319.0 286.0 L 1318.0 285.0 L 1318.0 284.0 L 1314.0 280.0 L 1313.0 280.0 L 1312.0 279.0 L 1300.0 279.0 L 1299.0 280.0 Z
M 1278.0 279.0 L 1269.0 279.0 L 1268.0 280.0 L 1265.0 281.0 L 1265.0 282.0 L 1264.0 283.0 L 1263.0 282.0 L 1263.0 279.0 L 1257.0 279.0 L 1257.0 316.0 L 1263.0 316.0 L 1263.0 291.0 L 1264.0 290.0 L 1264.0 288.0 L 1268.0 284.0 L 1275.0 284.0 L 1278.0 287.0 L 1278.0 288.0 L 1279.0 289.0 L 1279.0 294.0 L 1285.0 294.0 L 1285.0 287.0 L 1284.0 286.0 L 1283.0 283.0 L 1280.0 280.0 L 1279.0 280.0 Z
M 1031.0 279.0 L 1031.0 316.0 L 1037.0 316.0 L 1037.0 286.0 L 1040.0 283.0 L 1042.0 283.0 L 1044.0 285.0 L 1044.0 286.0 L 1045.0 287.0 L 1045.0 316.0 L 1050.0 316.0 L 1050.0 287.0 L 1051.0 286.0 L 1051.0 285.0 L 1053.0 283.0 L 1055.0 283.0 L 1058.0 286.0 L 1058.0 316.0 L 1064.0 316.0 L 1064.0 286.0 L 1063.0 285.0 L 1063.0 283.0 L 1062.0 282.0 L 1062.0 281.0 L 1059.0 279.0 L 1053.0 279.0 L 1049.0 283.0 L 1048.0 282.0 L 1048.0 281.0 L 1046.0 279.0 L 1040.0 279.0 L 1037.0 282.0 L 1036.0 281.0 L 1036.0 279.0 Z
M 933.0 279.0 L 932.0 280.0 L 929.0 281.0 L 927.0 283.0 L 927.0 284.0 L 926.0 285.0 L 926.0 287.0 L 925.0 288.0 L 925.0 290.0 L 926.0 291.0 L 926.0 293.0 L 927.0 294.0 L 927.0 295.0 L 929.0 297.0 L 930.0 297.0 L 933.0 299.0 L 935.0 299.0 L 936.0 300.0 L 941.0 300.0 L 942.0 301.0 L 944.0 301.0 L 945.0 302.0 L 946.0 302.0 L 948.0 305.0 L 948.0 308.0 L 945.0 311.0 L 944.0 311.0 L 943.0 312.0 L 936.0 312.0 L 935.0 311.0 L 932.0 310.0 L 931.0 309.0 L 931.0 307.0 L 925.0 307.0 L 925.0 310.0 L 926.0 311.0 L 926.0 312.0 L 929.0 315.0 L 930.0 315.0 L 931.0 316.0 L 933.0 316.0 L 934.0 317.0 L 944.0 317.0 L 945.0 316.0 L 947.0 316.0 L 948.0 315.0 L 951.0 314.0 L 951.0 313.0 L 953.0 311.0 L 953.0 310.0 L 954.0 309.0 L 954.0 303.0 L 953.0 302.0 L 953.0 301.0 L 949.0 297.0 L 948.0 297.0 L 947.0 296.0 L 945.0 296.0 L 944.0 295.0 L 940.0 295.0 L 939.0 294.0 L 936.0 294.0 L 935.0 293.0 L 934.0 293.0 L 931.0 290.0 L 931.0 288.0 L 932.0 287.0 L 932.0 286.0 L 935.0 284.0 L 944.0 284.0 L 947.0 287.0 L 947.0 288.0 L 953.0 288.0 L 953.0 286.0 L 952.0 285.0 L 952.0 284.0 L 948.0 280.0 L 947.0 280.0 L 946.0 279.0 Z
M 891.0 279.0 L 891.0 284.0 L 901.0 284.0 L 903.0 287.0 L 903.0 310.0 L 902.0 311.0 L 890.0 311.0 L 890.0 316.0 L 920.0 316.0 L 920.0 311.0 L 909.0 311.0 L 908.0 310.0 L 908.0 279.0 Z
M 1448.0 278.0 L 1447.0 279.0 L 1442.0 279.0 L 1441.0 280.0 L 1438.0 281.0 L 1435.0 284.0 L 1435.0 285.0 L 1433.0 288.0 L 1433.0 307.0 L 1434.0 308.0 L 1435.0 311.0 L 1439.0 315.0 L 1440.0 315.0 L 1441.0 316.0 L 1443.0 316.0 L 1444.0 317.0 L 1451.0 317.0 L 1452.0 316.0 L 1454.0 316.0 L 1455.0 315.0 L 1456.0 315.0 L 1460.0 311.0 L 1460.0 310.0 L 1461.0 309.0 L 1461.0 307.0 L 1462.0 306.0 L 1462.0 289.0 L 1461.0 288.0 L 1461.0 287.0 L 1460.0 286.0 L 1459.0 283.0 L 1457.0 281.0 L 1456.0 281.0 L 1453.0 279.0 L 1449.0 279.0 Z
M 1232.0 278.0 L 1231.0 279.0 L 1227.0 279.0 L 1226.0 280.0 L 1225.0 280.0 L 1223.0 282.0 L 1222.0 282.0 L 1222.0 283.0 L 1220.0 285.0 L 1220.0 286.0 L 1219.0 287.0 L 1219.0 289.0 L 1218.0 290.0 L 1218.0 305.0 L 1219.0 306.0 L 1219.0 309.0 L 1220.0 310.0 L 1220.0 311.0 L 1224.0 315.0 L 1225.0 315.0 L 1226.0 316.0 L 1228.0 316.0 L 1229.0 317.0 L 1237.0 317.0 L 1238.0 316.0 L 1240.0 316.0 L 1241.0 315.0 L 1242.0 315.0 L 1245.0 312.0 L 1245.0 311.0 L 1246.0 310.0 L 1247.0 307.0 L 1241.0 307.0 L 1241.0 308.0 L 1238.0 311.0 L 1237.0 311.0 L 1236.0 312.0 L 1231.0 312.0 L 1230.0 311.0 L 1228.0 311.0 L 1225.0 308.0 L 1225.0 307.0 L 1224.0 306.0 L 1224.0 300.0 L 1225.0 299.0 L 1247.0 299.0 L 1247.0 289.0 L 1246.0 288.0 L 1246.0 286.0 L 1242.0 281.0 L 1241.0 281.0 L 1238.0 279.0 L 1235.0 279.0 L 1234.0 278.0 Z
M 1202.0 279.0 L 1199.0 279.0 L 1198.0 278.0 L 1196.0 278.0 L 1195.0 279.0 L 1193.0 279.0 L 1192.0 280.0 L 1191.0 280.0 L 1188.0 283.0 L 1187.0 282.0 L 1187.0 279.0 L 1181.0 279.0 L 1181.0 329.0 L 1182.0 330.0 L 1186.0 330.0 L 1187.0 329.0 L 1187.0 313.0 L 1188.0 312.0 L 1189.0 313.0 L 1189.0 314.0 L 1190.0 314.0 L 1192.0 316.0 L 1193.0 316.0 L 1194.0 317.0 L 1201.0 317.0 L 1202.0 316.0 L 1205.0 315.0 L 1207.0 313.0 L 1207.0 312.0 L 1209.0 309.0 L 1209.0 307.0 L 1210.0 306.0 L 1210.0 289.0 L 1209.0 288.0 L 1209.0 286.0 L 1208.0 285.0 L 1208.0 284.0 L 1204.0 280.0 L 1203.0 280.0 Z
M 1076.0 281.0 L 1073.0 284.0 L 1073.0 285.0 L 1072.0 286.0 L 1071.0 289.0 L 1077.0 289.0 L 1078.0 288.0 L 1078.0 287.0 L 1080.0 285.0 L 1081.0 285.0 L 1082.0 284.0 L 1090.0 284.0 L 1092.0 286.0 L 1092.0 287.0 L 1094.0 290.0 L 1094.0 293.0 L 1093.0 294.0 L 1083.0 294.0 L 1082.0 295.0 L 1077.0 295.0 L 1076.0 296.0 L 1075.0 296.0 L 1071.0 300.0 L 1071.0 301.0 L 1070.0 302.0 L 1070.0 309.0 L 1071.0 310.0 L 1072.0 313.0 L 1074.0 315.0 L 1075.0 315.0 L 1078.0 317.0 L 1087.0 317.0 L 1088.0 316.0 L 1089.0 316.0 L 1093.0 312.0 L 1094.0 313.0 L 1094.0 316.0 L 1100.0 316.0 L 1100.0 291.0 L 1099.0 290.0 L 1099.0 286.0 L 1098.0 285.0 L 1098.0 284.0 L 1094.0 280.0 L 1093.0 280.0 L 1092.0 279.0 L 1088.0 279.0 L 1087.0 278.0 L 1084.0 278.0 L 1083.0 279.0 L 1080.0 279.0 L 1079.0 280.0 Z
M 1009.0 278.0 L 1008.0 279.0 L 1004.0 279.0 L 1003.0 280.0 L 1000.0 281.0 L 998.0 283.0 L 998.0 284.0 L 995.0 289.0 L 995.0 306.0 L 996.0 307.0 L 996.0 309.0 L 997.0 310.0 L 997.0 311.0 L 1001.0 315.0 L 1002.0 315.0 L 1003.0 316.0 L 1005.0 316.0 L 1006.0 317.0 L 1014.0 317.0 L 1015.0 316.0 L 1017.0 316.0 L 1019.0 314.0 L 1020.0 314.0 L 1022.0 312.0 L 1022.0 311.0 L 1023.0 310.0 L 1024.0 307.0 L 1018.0 307.0 L 1017.0 308.0 L 1017.0 309.0 L 1015.0 311.0 L 1013.0 311.0 L 1012.0 312.0 L 1007.0 312.0 L 1006.0 311.0 L 1005.0 311.0 L 1002.0 308.0 L 1002.0 307.0 L 1001.0 306.0 L 1001.0 300.0 L 1002.0 299.0 L 1024.0 299.0 L 1024.0 290.0 L 1023.0 289.0 L 1023.0 287.0 L 1022.0 286.0 L 1021.0 283.0 L 1019.0 281.0 L 1018.0 281.0 L 1015.0 279.0 L 1011.0 279.0 L 1010.0 278.0 Z
M 1155.0 271.0 L 1160.0 271.0 L 1161.0 272.0 L 1162.0 272.0 L 1165.0 275.0 L 1165.0 276.0 L 1166.0 277.0 L 1166.0 306.0 L 1165.0 307.0 L 1165.0 308.0 L 1162.0 311.0 L 1160.0 311.0 L 1159.0 312.0 L 1156.0 312.0 L 1155.0 311.0 L 1153.0 311.0 L 1150.0 308.0 L 1150.0 306.0 L 1149.0 305.0 L 1149.0 277.0 L 1150.0 276.0 L 1150.0 275.0 L 1153.0 272.0 L 1154.0 272.0 Z
M 1335.0 269.0 L 1335.0 277.0 L 1336.0 278.0 L 1335.0 279.0 L 1326.0 279.0 L 1326.0 285.0 L 1335.0 285.0 L 1336.0 286.0 L 1336.0 311.0 L 1338.0 313.0 L 1338.0 314.0 L 1339.0 314.0 L 1341.0 316.0 L 1355.0 316.0 L 1355.0 311.0 L 1344.0 311.0 L 1342.0 309.0 L 1342.0 285.0 L 1343.0 284.0 L 1352.0 284.0 L 1353.0 285.0 L 1355.0 285.0 L 1355.0 279.0 L 1343.0 279.0 L 1342.0 278.0 L 1342.0 269.0 Z
M 501.0 269.0 L 485.0 269.0 L 484.0 270.0 L 483.0 270.0 L 483.0 271.0 L 481.0 274.0 L 481.0 276.0 L 478.0 281.0 L 478.0 283.0 L 475.0 288.0 L 475.0 290.0 L 473.0 293.0 L 473.0 295.0 L 471.0 298.0 L 471.0 300.0 L 469.0 303.0 L 469.0 305.0 L 466.0 310.0 L 466.0 312.0 L 464.0 315.0 L 464.0 317.0 L 461.0 322.0 L 461.0 324.0 L 459.0 327.0 L 459.0 329.0 L 457.0 332.0 L 457.0 334.0 L 454.0 339.0 L 454.0 341.0 L 453.0 342.0 L 453.0 343.0 L 452.0 344.0 L 452.0 346.0 L 450.0 349.0 L 450.0 351.0 L 449.0 352.0 L 449.0 354.0 L 447.0 356.0 L 445.0 353.0 L 445.0 351.0 L 444.0 350.0 L 444.0 348.0 L 441.0 343.0 L 441.0 341.0 L 438.0 336.0 L 438.0 334.0 L 435.0 329.0 L 435.0 327.0 L 432.0 322.0 L 432.0 320.0 L 431.0 319.0 L 431.0 318.0 L 430.0 317.0 L 430.0 315.0 L 427.0 310.0 L 427.0 308.0 L 424.0 303.0 L 424.0 301.0 L 421.0 296.0 L 421.0 294.0 L 419.0 291.0 L 419.0 289.0 L 417.0 286.0 L 417.0 284.0 L 414.0 279.0 L 414.0 277.0 L 411.0 272.0 L 411.0 270.0 L 410.0 270.0 L 409.0 269.0 L 392.0 269.0 L 392.0 271.0 L 394.0 274.0 L 394.0 276.0 L 395.0 277.0 L 395.0 278.0 L 398.0 283.0 L 398.0 285.0 L 401.0 290.0 L 401.0 292.0 L 404.0 297.0 L 404.0 299.0 L 407.0 304.0 L 407.0 306.0 L 410.0 311.0 L 410.0 313.0 L 411.0 314.0 L 411.0 315.0 L 414.0 320.0 L 414.0 322.0 L 417.0 327.0 L 417.0 329.0 L 420.0 334.0 L 420.0 336.0 L 423.0 341.0 L 423.0 343.0 L 426.0 348.0 L 426.0 350.0 L 427.0 351.0 L 427.0 352.0 L 430.0 357.0 L 430.0 359.0 L 431.0 360.0 L 431.0 361.0 L 434.0 366.0 L 434.0 368.0 L 435.0 369.0 L 435.0 370.0 L 437.0 373.0 L 437.0 375.0 L 438.0 376.0 L 438.0 379.0 L 437.0 380.0 L 437.0 382.0 L 435.0 385.0 L 435.0 387.0 L 433.0 390.0 L 433.0 392.0 L 430.0 397.0 L 430.0 399.0 L 428.0 402.0 L 428.0 404.0 L 425.0 409.0 L 425.0 411.0 L 422.0 416.0 L 422.0 418.0 L 419.0 423.0 L 419.0 425.0 L 418.0 426.0 L 418.0 427.0 L 417.0 428.0 L 416.0 431.0 L 434.0 431.0 L 434.0 430.0 L 436.0 427.0 L 436.0 425.0 L 439.0 420.0 L 439.0 418.0 L 442.0 413.0 L 442.0 411.0 L 444.0 408.0 L 444.0 406.0 L 446.0 403.0 L 446.0 401.0 L 447.0 400.0 L 447.0 399.0 L 449.0 396.0 L 449.0 394.0 L 452.0 389.0 L 452.0 387.0 L 454.0 384.0 L 454.0 382.0 L 456.0 379.0 L 456.0 377.0 L 458.0 374.0 L 458.0 372.0 L 459.0 371.0 L 459.0 370.0 L 461.0 367.0 L 461.0 365.0 L 464.0 360.0 L 464.0 358.0 L 466.0 355.0 L 466.0 353.0 L 468.0 350.0 L 468.0 348.0 L 471.0 343.0 L 471.0 341.0 L 473.0 338.0 L 473.0 336.0 L 476.0 331.0 L 476.0 329.0 L 478.0 326.0 L 478.0 324.0 L 481.0 319.0 L 481.0 317.0 L 482.0 316.0 L 482.0 315.0 L 484.0 312.0 L 484.0 310.0 L 487.0 305.0 L 487.0 303.0 L 488.0 302.0 L 488.0 301.0 L 489.0 300.0 L 489.0 298.0 L 492.0 293.0 L 492.0 291.0 L 495.0 286.0 L 495.0 284.0 L 498.0 279.0 L 498.0 277.0 L 499.0 276.0 L 499.0 275.0 L 502.0 270.0 Z
M 968.0 269.0 L 968.0 278.0 L 967.0 279.0 L 958.0 279.0 L 958.0 285.0 L 967.0 285.0 L 968.0 286.0 L 968.0 310.0 L 969.0 311.0 L 969.0 312.0 L 972.0 315.0 L 973.0 315.0 L 974.0 316.0 L 988.0 316.0 L 988.0 311.0 L 976.0 311.0 L 974.0 308.0 L 974.0 285.0 L 975.0 284.0 L 976.0 285.0 L 977.0 284.0 L 988.0 284.0 L 988.0 279.0 L 975.0 279.0 L 974.0 278.0 L 974.0 269.0 L 973.0 268.0 L 972.0 269.0 Z
M 637.0 267.0 L 636.0 268.0 L 630.0 268.0 L 629.0 269.0 L 626.0 269.0 L 625.0 270.0 L 623.0 270.0 L 620.0 272.0 L 618.0 272.0 L 617.0 273.0 L 616.0 273.0 L 614.0 275.0 L 611.0 276.0 L 608.0 279.0 L 607.0 279.0 L 600.0 286.0 L 600.0 287.0 L 597.0 290.0 L 597.0 291.0 L 595.0 293.0 L 595.0 294.0 L 592.0 299.0 L 592.0 301.0 L 590.0 304.0 L 590.0 306.0 L 589.0 307.0 L 589.0 310.0 L 588.0 311.0 L 588.0 316.0 L 587.0 317.0 L 587.0 335.0 L 588.0 336.0 L 588.0 341.0 L 589.0 342.0 L 589.0 345.0 L 590.0 346.0 L 590.0 348.0 L 592.0 351.0 L 592.0 353.0 L 593.0 354.0 L 594.0 357.0 L 596.0 359.0 L 596.0 360.0 L 598.0 362.0 L 598.0 363.0 L 601.0 366.0 L 601.0 367.0 L 606.0 372.0 L 607.0 372.0 L 610.0 375.0 L 611.0 375.0 L 613.0 377.0 L 614.0 377.0 L 615.0 378.0 L 616.0 378.0 L 621.0 381.0 L 623.0 381.0 L 624.0 382.0 L 626.0 382.0 L 627.0 383.0 L 630.0 383.0 L 631.0 384.0 L 636.0 384.0 L 637.0 385.0 L 650.0 385.0 L 651.0 384.0 L 656.0 384.0 L 657.0 383.0 L 660.0 383.0 L 661.0 382.0 L 663.0 382.0 L 664.0 381.0 L 666.0 381.0 L 667.0 380.0 L 668.0 380.0 L 669.0 379.0 L 670.0 379.0 L 671.0 378.0 L 674.0 377.0 L 676.0 375.0 L 677.0 375.0 L 687.0 365.0 L 687.0 364.0 L 690.0 361.0 L 690.0 360.0 L 691.0 359.0 L 691.0 358.0 L 692.0 357.0 L 692.0 356.0 L 695.0 351.0 L 694.0 350.0 L 676.0 350.0 L 676.0 351.0 L 675.0 352.0 L 674.0 355.0 L 666.0 363.0 L 665.0 363.0 L 663.0 365.0 L 662.0 365.0 L 657.0 368.0 L 654.0 368.0 L 653.0 369.0 L 648.0 369.0 L 647.0 370.0 L 641.0 370.0 L 640.0 369.0 L 634.0 369.0 L 633.0 368.0 L 631.0 368.0 L 630.0 367.0 L 629.0 367.0 L 628.0 366.0 L 627.0 366.0 L 626.0 365.0 L 623.0 364.0 L 621.0 362.0 L 620.0 362.0 L 612.0 354.0 L 612.0 353.0 L 610.0 351.0 L 610.0 350.0 L 607.0 345.0 L 607.0 343.0 L 606.0 342.0 L 606.0 339.0 L 605.0 338.0 L 605.0 334.0 L 604.0 333.0 L 604.0 331.0 L 605.0 330.0 L 696.0 330.0 L 696.0 317.0 L 695.0 316.0 L 695.0 311.0 L 694.0 310.0 L 694.0 307.0 L 693.0 306.0 L 693.0 304.0 L 692.0 303.0 L 692.0 301.0 L 691.0 300.0 L 691.0 298.0 L 690.0 297.0 L 689.0 294.0 L 687.0 292.0 L 686.0 289.0 L 678.0 280.0 L 677.0 280.0 L 673.0 276.0 L 672.0 276.0 L 670.0 274.0 L 669.0 274.0 L 664.0 271.0 L 662.0 271.0 L 661.0 270.0 L 659.0 270.0 L 658.0 269.0 L 655.0 269.0 L 654.0 268.0 L 648.0 268.0 L 647.0 267.0 Z
M 1153.0 266.0 L 1152.0 267.0 L 1150.0 267.0 L 1148.0 269.0 L 1147.0 269.0 L 1146.0 270.0 L 1146.0 271.0 L 1144.0 273.0 L 1144.0 275.0 L 1143.0 276.0 L 1143.0 307.0 L 1144.0 308.0 L 1145.0 311.0 L 1149.0 315.0 L 1150.0 315.0 L 1153.0 317.0 L 1162.0 317.0 L 1163.0 316.0 L 1165.0 316.0 L 1167.0 314.0 L 1168.0 314.0 L 1169.0 313.0 L 1169.0 312.0 L 1171.0 310.0 L 1171.0 308.0 L 1172.0 307.0 L 1172.0 276.0 L 1171.0 275.0 L 1171.0 274.0 L 1170.0 273.0 L 1169.0 270.0 L 1168.0 269.0 L 1167.0 269.0 L 1165.0 267.0 L 1163.0 267.0 L 1162.0 266.0 Z
M 864.0 266.0 L 863.0 267.0 L 861.0 267.0 L 859.0 269.0 L 858.0 269.0 L 856.0 271.0 L 856.0 272.0 L 855.0 273.0 L 855.0 275.0 L 854.0 276.0 L 854.0 282.0 L 855.0 283.0 L 855.0 285.0 L 856.0 286.0 L 856.0 287.0 L 859.0 290.0 L 860.0 290.0 L 865.0 293.0 L 867.0 293.0 L 870.0 295.0 L 872.0 295.0 L 873.0 296.0 L 874.0 296.0 L 877.0 299.0 L 877.0 300.0 L 878.0 301.0 L 878.0 305.0 L 877.0 306.0 L 877.0 308.0 L 875.0 310.0 L 874.0 310.0 L 873.0 311.0 L 871.0 311.0 L 870.0 312.0 L 867.0 312.0 L 866.0 311.0 L 864.0 311.0 L 860.0 307.0 L 860.0 306.0 L 859.0 305.0 L 859.0 303.0 L 853.0 303.0 L 853.0 307.0 L 854.0 308.0 L 855.0 311.0 L 859.0 315.0 L 860.0 315.0 L 861.0 316.0 L 863.0 316.0 L 864.0 317.0 L 873.0 317.0 L 874.0 316.0 L 876.0 316.0 L 877.0 315.0 L 878.0 315.0 L 880.0 313.0 L 881.0 313.0 L 881.0 312.0 L 883.0 310.0 L 883.0 308.0 L 884.0 307.0 L 884.0 300.0 L 883.0 299.0 L 883.0 297.0 L 882.0 296.0 L 882.0 295.0 L 879.0 292.0 L 878.0 292.0 L 876.0 290.0 L 874.0 290.0 L 871.0 288.0 L 869.0 288.0 L 868.0 287.0 L 866.0 287.0 L 864.0 285.0 L 863.0 285.0 L 861.0 283.0 L 861.0 282.0 L 860.0 281.0 L 860.0 277.0 L 861.0 276.0 L 861.0 275.0 L 864.0 272.0 L 865.0 272.0 L 866.0 271.0 L 871.0 271.0 L 872.0 272.0 L 873.0 272.0 L 877.0 276.0 L 877.0 278.0 L 878.0 279.0 L 883.0 279.0 L 884.0 278.0 L 883.0 277.0 L 883.0 274.0 L 882.0 273.0 L 882.0 272.0 L 878.0 268.0 L 877.0 268.0 L 876.0 267.0 L 874.0 267.0 L 873.0 266.0 Z
M 1375.0 264.0 L 1373.0 266.0 L 1373.0 270.0 L 1375.0 272.0 L 1376.0 272.0 L 1377.0 273.0 L 1378.0 272.0 L 1380.0 272.0 L 1382.0 270.0 L 1382.0 267.0 L 1381.0 266.0 L 1381.0 265.0 L 1380.0 264.0 Z
M 902.0 264.0 L 900.0 267.0 L 900.0 270.0 L 902.0 272.0 L 904.0 272.0 L 905.0 273.0 L 906.0 272.0 L 907.0 272.0 L 909.0 270.0 L 909.0 266.0 L 907.0 264.0 Z
M 529.0 239.0 L 529.0 268.0 L 528.0 269.0 L 513.0 269.0 L 512.0 270.0 L 508.0 270.0 L 508.0 285.0 L 528.0 285.0 L 529.0 286.0 L 529.0 357.0 L 530.0 358.0 L 530.0 363.0 L 531.0 364.0 L 531.0 366.0 L 532.0 367.0 L 532.0 368.0 L 533.0 369.0 L 534.0 372.0 L 539.0 377.0 L 540.0 377.0 L 542.0 379.0 L 543.0 379.0 L 546.0 381.0 L 548.0 381.0 L 549.0 382.0 L 552.0 382.0 L 553.0 383.0 L 576.0 383.0 L 577.0 382.0 L 577.0 368.0 L 557.0 368.0 L 556.0 367.0 L 553.0 366.0 L 548.0 361.0 L 548.0 360.0 L 547.0 359.0 L 547.0 357.0 L 546.0 356.0 L 546.0 286.0 L 547.0 285.0 L 577.0 285.0 L 577.0 270.0 L 576.0 269.0 L 547.0 269.0 L 546.0 268.0 L 546.0 239.0 Z
M 291.0 220.0 L 292.0 219.0 L 336.0 219.0 L 337.0 220.0 L 341.0 220.0 L 342.0 221.0 L 344.0 221.0 L 345.0 222.0 L 346.0 222.0 L 347.0 223.0 L 349.0 223.0 L 351.0 225.0 L 352.0 225.0 L 355.0 228.0 L 356.0 228.0 L 358.0 230.0 L 358.0 231.0 L 361.0 234.0 L 361.0 235.0 L 364.0 240.0 L 364.0 242.0 L 365.0 243.0 L 365.0 249.0 L 366.0 250.0 L 366.0 252.0 L 365.0 253.0 L 365.0 259.0 L 364.0 260.0 L 364.0 262.0 L 363.0 263.0 L 363.0 264.0 L 362.0 265.0 L 361.0 268.0 L 359.0 270.0 L 359.0 271.0 L 352.0 277.0 L 351.0 277.0 L 348.0 279.0 L 346.0 279.0 L 345.0 280.0 L 343.0 280.0 L 342.0 281.0 L 337.0 281.0 L 336.0 282.0 L 292.0 282.0 L 291.0 281.0 Z
M 777.0 205.0 L 777.0 466.0 L 781.0 466.0 L 781.0 206.0 L 780.0 205.0 Z
M 375.0 227.0 L 373.0 225.0 L 373.0 224.0 L 364.0 215.0 L 363.0 215.0 L 361.0 213.0 L 360.0 213.0 L 355.0 210.0 L 353.0 210.0 L 350.0 208.0 L 347.0 208.0 L 346.0 207.0 L 343.0 207.0 L 342.0 206.0 L 336.0 206.0 L 335.0 205.0 L 276.0 205.0 L 276.0 360.0 L 290.0 360.0 L 291.0 359.0 L 291.0 297.0 L 292.0 296.0 L 340.0 296.0 L 341.0 297.0 L 345.0 297.0 L 346.0 298.0 L 348.0 298.0 L 349.0 299.0 L 351.0 299.0 L 352.0 300.0 L 353.0 300.0 L 354.0 301.0 L 357.0 302.0 L 360.0 305.0 L 361.0 305.0 L 365.0 309.0 L 365.0 310.0 L 368.0 313.0 L 368.0 314.0 L 369.0 315.0 L 369.0 317.0 L 370.0 318.0 L 370.0 320.0 L 371.0 321.0 L 371.0 325.0 L 372.0 326.0 L 372.0 338.0 L 371.0 339.0 L 371.0 342.0 L 370.0 343.0 L 370.0 345.0 L 369.0 346.0 L 369.0 348.0 L 368.0 349.0 L 368.0 350.0 L 366.0 352.0 L 366.0 353.0 L 358.0 361.0 L 357.0 361.0 L 355.0 363.0 L 354.0 363.0 L 349.0 366.0 L 347.0 366.0 L 346.0 367.0 L 344.0 367.0 L 343.0 368.0 L 339.0 368.0 L 338.0 369.0 L 261.0 369.0 L 260.0 368.0 L 260.0 322.0 L 259.0 321.0 L 259.0 314.0 L 258.0 313.0 L 258.0 310.0 L 256.0 307.0 L 256.0 305.0 L 255.0 304.0 L 254.0 301.0 L 252.0 299.0 L 252.0 298.0 L 250.0 296.0 L 250.0 295.0 L 244.0 289.0 L 243.0 289.0 L 238.0 285.0 L 237.0 285.0 L 234.0 283.0 L 232.0 283.0 L 231.0 282.0 L 229.0 282.0 L 228.0 281.0 L 224.0 281.0 L 223.0 280.0 L 210.0 280.0 L 209.0 281.0 L 205.0 281.0 L 204.0 282.0 L 202.0 282.0 L 201.0 283.0 L 200.0 283.0 L 199.0 284.0 L 197.0 284.0 L 195.0 286.0 L 192.0 287.0 L 188.0 291.0 L 187.0 291.0 L 185.0 293.0 L 185.0 294.0 L 182.0 297.0 L 182.0 298.0 L 181.0 299.0 L 180.0 299.0 L 178.0 297.0 L 178.0 296.0 L 169.0 287.0 L 168.0 287.0 L 166.0 285.0 L 165.0 285.0 L 162.0 283.0 L 160.0 283.0 L 159.0 282.0 L 157.0 282.0 L 156.0 281.0 L 152.0 281.0 L 151.0 280.0 L 138.0 280.0 L 137.0 281.0 L 133.0 281.0 L 132.0 282.0 L 130.0 282.0 L 129.0 283.0 L 127.0 283.0 L 126.0 284.0 L 125.0 284.0 L 124.0 285.0 L 121.0 286.0 L 119.0 288.0 L 118.0 288.0 L 108.0 298.0 L 108.0 299.0 L 107.0 300.0 L 107.0 301.0 L 106.0 302.0 L 106.0 303.0 L 103.0 308.0 L 103.0 311.0 L 102.0 312.0 L 102.0 315.0 L 101.0 316.0 L 101.0 383.0 L 114.0 383.0 L 115.0 382.0 L 115.0 319.0 L 116.0 318.0 L 116.0 315.0 L 118.0 312.0 L 118.0 310.0 L 120.0 308.0 L 121.0 305.0 L 127.0 299.0 L 128.0 299.0 L 130.0 297.0 L 131.0 297.0 L 134.0 295.0 L 136.0 295.0 L 137.0 294.0 L 151.0 294.0 L 152.0 295.0 L 154.0 295.0 L 155.0 296.0 L 157.0 296.0 L 159.0 298.0 L 160.0 298.0 L 168.0 306.0 L 168.0 307.0 L 169.0 308.0 L 169.0 309.0 L 172.0 314.0 L 172.0 317.0 L 173.0 318.0 L 173.0 325.0 L 174.0 326.0 L 174.0 332.0 L 173.0 333.0 L 173.0 382.0 L 174.0 383.0 L 187.0 383.0 L 187.0 321.0 L 188.0 320.0 L 188.0 316.0 L 189.0 315.0 L 189.0 313.0 L 190.0 312.0 L 191.0 309.0 L 193.0 307.0 L 193.0 306.0 L 195.0 304.0 L 195.0 303.0 L 199.0 299.0 L 200.0 299.0 L 202.0 297.0 L 203.0 297.0 L 206.0 295.0 L 208.0 295.0 L 209.0 294.0 L 223.0 294.0 L 224.0 295.0 L 227.0 295.0 L 228.0 296.0 L 229.0 296.0 L 231.0 298.0 L 232.0 298.0 L 234.0 300.0 L 235.0 300.0 L 238.0 303.0 L 238.0 304.0 L 241.0 307.0 L 241.0 308.0 L 244.0 313.0 L 244.0 316.0 L 245.0 317.0 L 245.0 321.0 L 246.0 322.0 L 246.0 383.0 L 333.0 383.0 L 334.0 382.0 L 343.0 382.0 L 344.0 381.0 L 348.0 381.0 L 349.0 380.0 L 351.0 380.0 L 352.0 379.0 L 354.0 379.0 L 355.0 378.0 L 357.0 378.0 L 358.0 377.0 L 359.0 377.0 L 360.0 376.0 L 361.0 376.0 L 362.0 375.0 L 363.0 375.0 L 364.0 374.0 L 367.0 373.0 L 370.0 370.0 L 371.0 370.0 L 377.0 364.0 L 377.0 363.0 L 380.0 360.0 L 381.0 357.0 L 383.0 355.0 L 383.0 354.0 L 384.0 353.0 L 384.0 351.0 L 385.0 350.0 L 385.0 348.0 L 386.0 347.0 L 386.0 345.0 L 387.0 344.0 L 387.0 340.0 L 388.0 339.0 L 388.0 325.0 L 387.0 324.0 L 387.0 320.0 L 386.0 319.0 L 386.0 316.0 L 385.0 315.0 L 385.0 313.0 L 384.0 312.0 L 384.0 311.0 L 383.0 310.0 L 382.0 307.0 L 380.0 305.0 L 380.0 304.0 L 371.0 295.0 L 370.0 295.0 L 365.0 291.0 L 364.0 291.0 L 361.0 289.0 L 359.0 289.0 L 358.0 288.0 L 359.0 287.0 L 362.0 286.0 L 364.0 284.0 L 365.0 284.0 L 372.0 278.0 L 372.0 277.0 L 375.0 274.0 L 375.0 273.0 L 376.0 272.0 L 376.0 271.0 L 379.0 266.0 L 379.0 263.0 L 380.0 262.0 L 380.0 257.0 L 381.0 256.0 L 381.0 245.0 L 380.0 244.0 L 380.0 239.0 L 379.0 238.0 L 379.0 236.0 L 378.0 235.0 L 378.0 233.0 L 377.0 232.0 L 377.0 231.0 L 376.0 230.0 Z" fill="#000000" fill-rule="evenodd"/>
</svg>
