<?xml version="1.0" encoding="UTF-8"?>
<svg xmlns="http://www.w3.org/2000/svg" width="1376" height="768" viewBox="0 0 1376 768" role="img" aria-label="mByte logo">
  <path d="M 1042.0 369.0 L 1043.0 368.0 L 1043.0 365.0 L 1044.0 364.0 L 1044.0 362.0 L 1045.0 361.0 L 1045.0 359.0 L 1046.0 358.0 L 1046.0 356.0 L 1047.0 355.0 L 1047.0 354.0 L 1048.0 353.0 L 1048.0 352.0 L 1049.0 351.0 L 1049.0 350.0 L 1050.0 349.0 L 1051.0 346.0 L 1053.0 344.0 L 1053.0 343.0 L 1056.0 340.0 L 1056.0 339.0 L 1066.0 329.0 L 1067.0 329.0 L 1070.0 326.0 L 1071.0 326.0 L 1072.0 325.0 L 1073.0 325.0 L 1074.0 324.0 L 1075.0 324.0 L 1076.0 323.0 L 1077.0 323.0 L 1082.0 320.0 L 1084.0 320.0 L 1085.0 319.0 L 1087.0 319.0 L 1088.0 318.0 L 1092.0 318.0 L 1093.0 317.0 L 1116.0 317.0 L 1117.0 318.0 L 1120.0 318.0 L 1121.0 319.0 L 1124.0 319.0 L 1127.0 321.0 L 1129.0 321.0 L 1130.0 322.0 L 1131.0 322.0 L 1132.0 323.0 L 1135.0 324.0 L 1140.0 328.0 L 1141.0 328.0 L 1152.0 339.0 L 1152.0 340.0 L 1156.0 345.0 L 1156.0 346.0 L 1157.0 347.0 L 1157.0 348.0 L 1160.0 353.0 L 1160.0 355.0 L 1161.0 356.0 L 1161.0 358.0 L 1162.0 359.0 L 1162.0 361.0 L 1163.0 362.0 L 1163.0 365.0 L 1164.0 366.0 L 1164.0 371.0 L 1163.0 372.0 L 1043.0 372.0 L 1042.0 371.0 Z
M 873.0 296.0 L 844.0 296.0 L 843.0 297.0 L 843.0 298.0 L 842.0 299.0 L 842.0 301.0 L 841.0 302.0 L 841.0 303.0 L 839.0 306.0 L 839.0 308.0 L 838.0 309.0 L 838.0 310.0 L 835.0 315.0 L 835.0 317.0 L 833.0 320.0 L 833.0 322.0 L 832.0 323.0 L 832.0 324.0 L 829.0 329.0 L 829.0 331.0 L 826.0 336.0 L 826.0 338.0 L 825.0 339.0 L 825.0 340.0 L 823.0 343.0 L 823.0 345.0 L 820.0 350.0 L 820.0 352.0 L 818.0 355.0 L 818.0 357.0 L 817.0 358.0 L 817.0 359.0 L 814.0 364.0 L 814.0 366.0 L 811.0 371.0 L 811.0 373.0 L 809.0 376.0 L 809.0 378.0 L 808.0 379.0 L 808.0 380.0 L 806.0 383.0 L 806.0 385.0 L 805.0 386.0 L 805.0 387.0 L 802.0 392.0 L 802.0 394.0 L 800.0 397.0 L 800.0 399.0 L 799.0 400.0 L 799.0 401.0 L 796.0 406.0 L 796.0 408.0 L 793.0 413.0 L 793.0 415.0 L 790.0 420.0 L 790.0 422.0 L 787.0 427.0 L 787.0 429.0 L 786.0 430.0 L 786.0 431.0 L 785.0 432.0 L 785.0 434.0 L 783.0 437.0 L 780.0 432.0 L 780.0 430.0 L 777.0 425.0 L 777.0 423.0 L 776.0 422.0 L 776.0 421.0 L 773.0 416.0 L 773.0 414.0 L 770.0 409.0 L 770.0 407.0 L 769.0 406.0 L 769.0 405.0 L 766.0 400.0 L 766.0 398.0 L 763.0 393.0 L 763.0 391.0 L 762.0 390.0 L 762.0 389.0 L 759.0 384.0 L 759.0 382.0 L 756.0 377.0 L 756.0 375.0 L 753.0 370.0 L 753.0 368.0 L 750.0 363.0 L 750.0 361.0 L 749.0 360.0 L 749.0 359.0 L 746.0 354.0 L 746.0 352.0 L 743.0 347.0 L 743.0 345.0 L 740.0 340.0 L 740.0 338.0 L 739.0 337.0 L 739.0 336.0 L 737.0 333.0 L 737.0 331.0 L 736.0 330.0 L 736.0 329.0 L 733.0 324.0 L 733.0 322.0 L 732.0 321.0 L 732.0 320.0 L 730.0 317.0 L 730.0 315.0 L 729.0 314.0 L 729.0 313.0 L 726.0 308.0 L 726.0 306.0 L 723.0 301.0 L 723.0 299.0 L 722.0 298.0 L 722.0 297.0 L 721.0 296.0 L 692.0 296.0 L 692.0 299.0 L 693.0 300.0 L 693.0 301.0 L 696.0 306.0 L 696.0 308.0 L 697.0 309.0 L 697.0 310.0 L 700.0 315.0 L 700.0 317.0 L 701.0 318.0 L 701.0 319.0 L 702.0 320.0 L 702.0 321.0 L 705.0 326.0 L 705.0 328.0 L 708.0 333.0 L 708.0 335.0 L 709.0 336.0 L 709.0 337.0 L 712.0 342.0 L 712.0 344.0 L 713.0 345.0 L 713.0 346.0 L 716.0 351.0 L 716.0 353.0 L 717.0 354.0 L 717.0 355.0 L 720.0 360.0 L 720.0 362.0 L 721.0 363.0 L 721.0 364.0 L 724.0 369.0 L 724.0 371.0 L 727.0 376.0 L 727.0 378.0 L 728.0 379.0 L 728.0 380.0 L 731.0 385.0 L 731.0 387.0 L 732.0 388.0 L 732.0 389.0 L 735.0 394.0 L 735.0 396.0 L 736.0 397.0 L 736.0 398.0 L 739.0 403.0 L 739.0 405.0 L 740.0 406.0 L 740.0 407.0 L 743.0 412.0 L 743.0 414.0 L 744.0 415.0 L 744.0 416.0 L 747.0 421.0 L 747.0 423.0 L 748.0 424.0 L 748.0 425.0 L 749.0 426.0 L 749.0 427.0 L 752.0 432.0 L 752.0 434.0 L 753.0 435.0 L 753.0 436.0 L 756.0 441.0 L 756.0 443.0 L 759.0 448.0 L 759.0 450.0 L 760.0 451.0 L 760.0 452.0 L 761.0 453.0 L 761.0 454.0 L 764.0 459.0 L 764.0 461.0 L 765.0 462.0 L 765.0 463.0 L 767.0 466.0 L 767.0 468.0 L 769.0 471.0 L 769.0 472.0 L 768.0 473.0 L 768.0 474.0 L 765.0 479.0 L 765.0 481.0 L 762.0 486.0 L 762.0 488.0 L 760.0 491.0 L 760.0 493.0 L 757.0 498.0 L 757.0 500.0 L 754.0 505.0 L 754.0 507.0 L 751.0 512.0 L 751.0 514.0 L 748.0 519.0 L 748.0 521.0 L 745.0 526.0 L 745.0 528.0 L 742.0 533.0 L 742.0 535.0 L 739.0 540.0 L 739.0 542.0 L 736.0 547.0 L 736.0 549.0 L 733.0 554.0 L 733.0 557.0 L 761.0 557.0 L 761.0 555.0 L 764.0 550.0 L 764.0 548.0 L 766.0 545.0 L 766.0 543.0 L 767.0 542.0 L 767.0 541.0 L 770.0 536.0 L 770.0 534.0 L 773.0 529.0 L 773.0 527.0 L 775.0 524.0 L 775.0 522.0 L 778.0 517.0 L 778.0 515.0 L 779.0 514.0 L 779.0 513.0 L 781.0 510.0 L 781.0 508.0 L 782.0 507.0 L 782.0 506.0 L 785.0 501.0 L 785.0 499.0 L 788.0 494.0 L 788.0 492.0 L 789.0 491.0 L 789.0 490.0 L 790.0 489.0 L 790.0 487.0 L 793.0 482.0 L 793.0 480.0 L 796.0 475.0 L 796.0 473.0 L 797.0 472.0 L 797.0 471.0 L 800.0 466.0 L 800.0 464.0 L 803.0 459.0 L 803.0 457.0 L 804.0 456.0 L 804.0 455.0 L 806.0 452.0 L 806.0 450.0 L 809.0 445.0 L 809.0 443.0 L 811.0 440.0 L 811.0 438.0 L 812.0 437.0 L 812.0 436.0 L 815.0 431.0 L 815.0 429.0 L 818.0 424.0 L 818.0 422.0 L 821.0 417.0 L 821.0 415.0 L 824.0 410.0 L 824.0 408.0 L 827.0 403.0 L 827.0 401.0 L 830.0 396.0 L 830.0 394.0 L 831.0 393.0 L 831.0 392.0 L 834.0 387.0 L 834.0 385.0 L 837.0 380.0 L 837.0 378.0 L 838.0 377.0 L 838.0 376.0 L 839.0 375.0 L 839.0 373.0 L 842.0 368.0 L 842.0 366.0 L 843.0 365.0 L 843.0 364.0 L 846.0 359.0 L 846.0 357.0 L 849.0 352.0 L 849.0 350.0 L 852.0 345.0 L 852.0 343.0 L 853.0 342.0 L 853.0 341.0 L 856.0 336.0 L 856.0 334.0 L 858.0 331.0 L 858.0 329.0 L 859.0 328.0 L 859.0 327.0 L 862.0 322.0 L 862.0 320.0 L 865.0 315.0 L 865.0 313.0 L 868.0 308.0 L 868.0 306.0 L 869.0 305.0 L 869.0 304.0 L 870.0 303.0 L 870.0 302.0 L 871.0 301.0 L 871.0 300.0 L 872.0 299.0 Z
M 1081.0 295.0 L 1080.0 296.0 L 1078.0 296.0 L 1077.0 297.0 L 1074.0 297.0 L 1071.0 299.0 L 1069.0 299.0 L 1068.0 300.0 L 1067.0 300.0 L 1066.0 301.0 L 1065.0 301.0 L 1064.0 302.0 L 1063.0 302.0 L 1062.0 303.0 L 1061.0 303.0 L 1060.0 304.0 L 1057.0 305.0 L 1055.0 307.0 L 1054.0 307.0 L 1052.0 309.0 L 1051.0 309.0 L 1048.0 312.0 L 1047.0 312.0 L 1034.0 325.0 L 1034.0 326.0 L 1031.0 329.0 L 1031.0 330.0 L 1029.0 332.0 L 1028.0 335.0 L 1026.0 337.0 L 1026.0 338.0 L 1025.0 339.0 L 1025.0 340.0 L 1024.0 341.0 L 1024.0 342.0 L 1021.0 347.0 L 1021.0 349.0 L 1019.0 352.0 L 1019.0 354.0 L 1018.0 355.0 L 1018.0 357.0 L 1017.0 358.0 L 1017.0 361.0 L 1016.0 362.0 L 1016.0 366.0 L 1015.0 367.0 L 1015.0 372.0 L 1014.0 373.0 L 1014.0 384.0 L 1013.0 385.0 L 1013.0 391.0 L 1014.0 392.0 L 1014.0 404.0 L 1015.0 405.0 L 1015.0 409.0 L 1016.0 410.0 L 1016.0 414.0 L 1017.0 415.0 L 1017.0 417.0 L 1018.0 418.0 L 1018.0 420.0 L 1019.0 421.0 L 1019.0 423.0 L 1020.0 424.0 L 1020.0 426.0 L 1022.0 429.0 L 1022.0 431.0 L 1024.0 433.0 L 1024.0 434.0 L 1025.0 435.0 L 1025.0 436.0 L 1026.0 437.0 L 1027.0 440.0 L 1029.0 442.0 L 1029.0 443.0 L 1031.0 445.0 L 1031.0 446.0 L 1034.0 449.0 L 1034.0 450.0 L 1047.0 463.0 L 1048.0 463.0 L 1051.0 466.0 L 1052.0 466.0 L 1057.0 470.0 L 1058.0 470.0 L 1059.0 471.0 L 1060.0 471.0 L 1061.0 472.0 L 1062.0 472.0 L 1063.0 473.0 L 1064.0 473.0 L 1069.0 476.0 L 1071.0 476.0 L 1072.0 477.0 L 1074.0 477.0 L 1075.0 478.0 L 1077.0 478.0 L 1078.0 479.0 L 1080.0 479.0 L 1081.0 480.0 L 1085.0 480.0 L 1086.0 481.0 L 1091.0 481.0 L 1092.0 482.0 L 1119.0 482.0 L 1120.0 481.0 L 1126.0 481.0 L 1127.0 480.0 L 1130.0 480.0 L 1131.0 479.0 L 1134.0 479.0 L 1135.0 478.0 L 1137.0 478.0 L 1138.0 477.0 L 1140.0 477.0 L 1141.0 476.0 L 1143.0 476.0 L 1144.0 475.0 L 1145.0 475.0 L 1146.0 474.0 L 1147.0 474.0 L 1148.0 473.0 L 1149.0 473.0 L 1150.0 472.0 L 1151.0 472.0 L 1152.0 471.0 L 1155.0 470.0 L 1157.0 468.0 L 1158.0 468.0 L 1160.0 466.0 L 1161.0 466.0 L 1166.0 461.0 L 1167.0 461.0 L 1175.0 453.0 L 1175.0 452.0 L 1181.0 445.0 L 1181.0 444.0 L 1183.0 442.0 L 1184.0 439.0 L 1186.0 437.0 L 1186.0 436.0 L 1189.0 431.0 L 1189.0 428.0 L 1182.0 428.0 L 1181.0 427.0 L 1175.0 427.0 L 1174.0 426.0 L 1169.0 426.0 L 1168.0 425.0 L 1162.0 425.0 L 1161.0 426.0 L 1161.0 427.0 L 1159.0 429.0 L 1158.0 432.0 L 1155.0 435.0 L 1155.0 436.0 L 1145.0 446.0 L 1144.0 446.0 L 1139.0 450.0 L 1138.0 450.0 L 1137.0 451.0 L 1136.0 451.0 L 1131.0 454.0 L 1129.0 454.0 L 1128.0 455.0 L 1126.0 455.0 L 1125.0 456.0 L 1122.0 456.0 L 1121.0 457.0 L 1116.0 457.0 L 1115.0 458.0 L 1097.0 458.0 L 1096.0 457.0 L 1092.0 457.0 L 1091.0 456.0 L 1087.0 456.0 L 1086.0 455.0 L 1084.0 455.0 L 1081.0 453.0 L 1079.0 453.0 L 1078.0 452.0 L 1077.0 452.0 L 1076.0 451.0 L 1073.0 450.0 L 1068.0 446.0 L 1067.0 446.0 L 1054.0 433.0 L 1054.0 432.0 L 1052.0 430.0 L 1052.0 429.0 L 1051.0 428.0 L 1051.0 427.0 L 1050.0 426.0 L 1050.0 425.0 L 1049.0 424.0 L 1049.0 423.0 L 1046.0 418.0 L 1046.0 416.0 L 1045.0 415.0 L 1045.0 413.0 L 1044.0 412.0 L 1044.0 410.0 L 1043.0 409.0 L 1043.0 405.0 L 1042.0 404.0 L 1042.0 398.0 L 1041.0 397.0 L 1041.0 395.0 L 1042.0 394.0 L 1193.0 394.0 L 1193.0 379.0 L 1192.0 378.0 L 1192.0 370.0 L 1191.0 369.0 L 1191.0 364.0 L 1190.0 363.0 L 1190.0 359.0 L 1189.0 358.0 L 1189.0 356.0 L 1188.0 355.0 L 1188.0 352.0 L 1187.0 351.0 L 1187.0 349.0 L 1185.0 346.0 L 1185.0 344.0 L 1184.0 343.0 L 1184.0 342.0 L 1183.0 341.0 L 1183.0 340.0 L 1182.0 339.0 L 1182.0 338.0 L 1181.0 337.0 L 1180.0 334.0 L 1178.0 332.0 L 1178.0 331.0 L 1176.0 329.0 L 1176.0 328.0 L 1174.0 326.0 L 1174.0 325.0 L 1169.0 320.0 L 1169.0 319.0 L 1163.0 313.0 L 1162.0 313.0 L 1158.0 309.0 L 1157.0 309.0 L 1152.0 305.0 L 1151.0 305.0 L 1150.0 304.0 L 1147.0 303.0 L 1145.0 301.0 L 1144.0 301.0 L 1143.0 300.0 L 1141.0 300.0 L 1138.0 298.0 L 1136.0 298.0 L 1135.0 297.0 L 1133.0 297.0 L 1132.0 296.0 L 1130.0 296.0 L 1129.0 295.0 L 1125.0 295.0 L 1124.0 294.0 L 1120.0 294.0 L 1119.0 293.0 L 1092.0 293.0 L 1091.0 294.0 L 1086.0 294.0 L 1085.0 295.0 Z
M 918.0 246.0 L 918.0 295.0 L 917.0 296.0 L 884.0 296.0 L 883.0 297.0 L 883.0 320.0 L 884.0 321.0 L 917.0 321.0 L 918.0 322.0 L 918.0 435.0 L 919.0 436.0 L 919.0 442.0 L 920.0 443.0 L 920.0 446.0 L 921.0 447.0 L 921.0 449.0 L 922.0 450.0 L 922.0 452.0 L 923.0 453.0 L 923.0 454.0 L 924.0 455.0 L 925.0 458.0 L 927.0 460.0 L 927.0 461.0 L 931.0 465.0 L 931.0 466.0 L 933.0 468.0 L 934.0 468.0 L 938.0 472.0 L 939.0 472.0 L 940.0 473.0 L 941.0 473.0 L 946.0 476.0 L 948.0 476.0 L 949.0 477.0 L 951.0 477.0 L 952.0 478.0 L 954.0 478.0 L 955.0 479.0 L 959.0 479.0 L 960.0 480.0 L 986.0 480.0 L 987.0 479.0 L 991.0 479.0 L 992.0 478.0 L 996.0 478.0 L 997.0 477.0 L 997.0 453.0 L 996.0 452.0 L 995.0 453.0 L 992.0 453.0 L 991.0 454.0 L 988.0 454.0 L 987.0 455.0 L 982.0 455.0 L 981.0 456.0 L 969.0 456.0 L 968.0 455.0 L 964.0 455.0 L 963.0 454.0 L 961.0 454.0 L 960.0 453.0 L 959.0 453.0 L 957.0 451.0 L 956.0 451.0 L 950.0 445.0 L 950.0 444.0 L 947.0 439.0 L 947.0 436.0 L 946.0 435.0 L 946.0 427.0 L 945.0 426.0 L 945.0 322.0 L 946.0 321.0 L 996.0 321.0 L 996.0 296.0 L 946.0 296.0 L 945.0 295.0 L 945.0 246.0 Z
M 519.0 210.0 L 520.0 209.0 L 587.0 209.0 L 588.0 210.0 L 595.0 210.0 L 596.0 211.0 L 600.0 211.0 L 601.0 212.0 L 604.0 212.0 L 605.0 213.0 L 608.0 213.0 L 609.0 214.0 L 611.0 214.0 L 612.0 215.0 L 613.0 215.0 L 614.0 216.0 L 615.0 216.0 L 616.0 217.0 L 617.0 217.0 L 618.0 218.0 L 621.0 219.0 L 624.0 222.0 L 625.0 222.0 L 633.0 230.0 L 633.0 231.0 L 636.0 234.0 L 636.0 235.0 L 639.0 240.0 L 639.0 242.0 L 640.0 243.0 L 640.0 245.0 L 641.0 246.0 L 641.0 249.0 L 642.0 250.0 L 642.0 258.0 L 643.0 259.0 L 643.0 262.0 L 642.0 263.0 L 642.0 271.0 L 641.0 272.0 L 641.0 275.0 L 640.0 276.0 L 640.0 278.0 L 638.0 281.0 L 638.0 283.0 L 636.0 285.0 L 635.0 288.0 L 632.0 291.0 L 632.0 292.0 L 627.0 297.0 L 626.0 297.0 L 623.0 300.0 L 622.0 300.0 L 620.0 302.0 L 619.0 302.0 L 618.0 303.0 L 617.0 303.0 L 612.0 306.0 L 610.0 306.0 L 609.0 307.0 L 607.0 307.0 L 606.0 308.0 L 603.0 308.0 L 602.0 309.0 L 599.0 309.0 L 598.0 310.0 L 592.0 310.0 L 591.0 311.0 L 520.0 311.0 L 519.0 310.0 Z
M 659.0 223.0 L 657.0 221.0 L 657.0 220.0 L 655.0 218.0 L 655.0 217.0 L 652.0 214.0 L 652.0 213.0 L 645.0 206.0 L 644.0 206.0 L 641.0 203.0 L 640.0 203.0 L 635.0 199.0 L 634.0 199.0 L 633.0 198.0 L 632.0 198.0 L 631.0 197.0 L 630.0 197.0 L 625.0 194.0 L 623.0 194.0 L 622.0 193.0 L 620.0 193.0 L 619.0 192.0 L 617.0 192.0 L 616.0 191.0 L 614.0 191.0 L 613.0 190.0 L 610.0 190.0 L 609.0 189.0 L 605.0 189.0 L 604.0 188.0 L 599.0 188.0 L 598.0 187.0 L 589.0 187.0 L 588.0 186.0 L 494.0 186.0 L 493.0 187.0 L 493.0 437.0 L 494.0 438.0 L 519.0 438.0 L 519.0 335.0 L 520.0 334.0 L 593.0 334.0 L 594.0 335.0 L 601.0 335.0 L 602.0 336.0 L 607.0 336.0 L 608.0 337.0 L 611.0 337.0 L 612.0 338.0 L 614.0 338.0 L 615.0 339.0 L 617.0 339.0 L 620.0 341.0 L 622.0 341.0 L 623.0 342.0 L 624.0 342.0 L 625.0 343.0 L 628.0 344.0 L 630.0 346.0 L 631.0 346.0 L 634.0 349.0 L 635.0 349.0 L 643.0 357.0 L 643.0 358.0 L 645.0 360.0 L 645.0 361.0 L 647.0 363.0 L 647.0 364.0 L 649.0 367.0 L 649.0 369.0 L 650.0 370.0 L 650.0 372.0 L 651.0 373.0 L 651.0 375.0 L 652.0 376.0 L 652.0 379.0 L 653.0 380.0 L 653.0 386.0 L 654.0 387.0 L 654.0 397.0 L 653.0 398.0 L 653.0 404.0 L 652.0 405.0 L 652.0 409.0 L 651.0 410.0 L 651.0 412.0 L 650.0 413.0 L 650.0 415.0 L 649.0 416.0 L 649.0 417.0 L 648.0 418.0 L 648.0 419.0 L 647.0 420.0 L 646.0 423.0 L 644.0 425.0 L 644.0 426.0 L 642.0 428.0 L 642.0 429.0 L 634.0 437.0 L 633.0 437.0 L 630.0 440.0 L 629.0 440.0 L 627.0 442.0 L 626.0 442.0 L 625.0 443.0 L 624.0 443.0 L 623.0 444.0 L 622.0 444.0 L 617.0 447.0 L 615.0 447.0 L 614.0 448.0 L 612.0 448.0 L 611.0 449.0 L 609.0 449.0 L 608.0 450.0 L 604.0 450.0 L 603.0 451.0 L 598.0 451.0 L 597.0 452.0 L 581.0 452.0 L 580.0 453.0 L 468.0 453.0 L 467.0 452.0 L 467.0 371.0 L 466.0 370.0 L 466.0 365.0 L 465.0 364.0 L 465.0 360.0 L 464.0 359.0 L 464.0 357.0 L 463.0 356.0 L 463.0 354.0 L 462.0 353.0 L 462.0 351.0 L 460.0 348.0 L 460.0 346.0 L 459.0 345.0 L 458.0 342.0 L 456.0 340.0 L 456.0 339.0 L 452.0 334.0 L 452.0 333.0 L 441.0 322.0 L 440.0 322.0 L 437.0 319.0 L 436.0 319.0 L 434.0 317.0 L 433.0 317.0 L 432.0 316.0 L 431.0 316.0 L 430.0 315.0 L 429.0 315.0 L 424.0 312.0 L 422.0 312.0 L 421.0 311.0 L 419.0 311.0 L 418.0 310.0 L 415.0 310.0 L 414.0 309.0 L 410.0 309.0 L 409.0 308.0 L 384.0 308.0 L 383.0 309.0 L 379.0 309.0 L 378.0 310.0 L 375.0 310.0 L 374.0 311.0 L 372.0 311.0 L 371.0 312.0 L 369.0 312.0 L 366.0 314.0 L 364.0 314.0 L 363.0 315.0 L 362.0 315.0 L 360.0 317.0 L 357.0 318.0 L 354.0 321.0 L 353.0 321.0 L 351.0 323.0 L 350.0 323.0 L 342.0 331.0 L 342.0 332.0 L 339.0 335.0 L 338.0 338.0 L 335.0 341.0 L 333.0 339.0 L 333.0 338.0 L 332.0 337.0 L 332.0 336.0 L 330.0 334.0 L 330.0 333.0 L 318.0 321.0 L 317.0 321.0 L 314.0 318.0 L 311.0 317.0 L 309.0 315.0 L 308.0 315.0 L 305.0 313.0 L 303.0 313.0 L 302.0 312.0 L 301.0 312.0 L 300.0 311.0 L 298.0 311.0 L 297.0 310.0 L 294.0 310.0 L 293.0 309.0 L 289.0 309.0 L 288.0 308.0 L 263.0 308.0 L 262.0 309.0 L 257.0 309.0 L 256.0 310.0 L 254.0 310.0 L 253.0 311.0 L 250.0 311.0 L 249.0 312.0 L 247.0 312.0 L 246.0 313.0 L 245.0 313.0 L 244.0 314.0 L 243.0 314.0 L 242.0 315.0 L 241.0 315.0 L 240.0 316.0 L 239.0 316.0 L 238.0 317.0 L 235.0 318.0 L 233.0 320.0 L 232.0 320.0 L 229.0 323.0 L 228.0 323.0 L 217.0 334.0 L 217.0 335.0 L 215.0 337.0 L 215.0 338.0 L 211.0 343.0 L 211.0 344.0 L 209.0 347.0 L 209.0 349.0 L 207.0 352.0 L 207.0 354.0 L 206.0 355.0 L 206.0 357.0 L 205.0 358.0 L 205.0 360.0 L 204.0 361.0 L 204.0 365.0 L 203.0 366.0 L 203.0 371.0 L 202.0 372.0 L 202.0 475.0 L 225.0 475.0 L 225.0 404.0 L 226.0 403.0 L 226.0 372.0 L 227.0 371.0 L 227.0 367.0 L 228.0 366.0 L 228.0 363.0 L 230.0 360.0 L 230.0 358.0 L 231.0 357.0 L 231.0 356.0 L 232.0 355.0 L 233.0 352.0 L 235.0 350.0 L 235.0 349.0 L 244.0 340.0 L 245.0 340.0 L 248.0 337.0 L 249.0 337.0 L 250.0 336.0 L 251.0 336.0 L 256.0 333.0 L 258.0 333.0 L 259.0 332.0 L 262.0 332.0 L 263.0 331.0 L 269.0 331.0 L 270.0 330.0 L 279.0 330.0 L 280.0 331.0 L 286.0 331.0 L 287.0 332.0 L 290.0 332.0 L 291.0 333.0 L 293.0 333.0 L 294.0 334.0 L 295.0 334.0 L 296.0 335.0 L 299.0 336.0 L 301.0 338.0 L 302.0 338.0 L 305.0 341.0 L 306.0 341.0 L 311.0 346.0 L 311.0 347.0 L 314.0 350.0 L 314.0 351.0 L 316.0 353.0 L 316.0 354.0 L 317.0 355.0 L 317.0 356.0 L 320.0 361.0 L 320.0 363.0 L 321.0 364.0 L 321.0 367.0 L 322.0 368.0 L 322.0 373.0 L 323.0 374.0 L 323.0 475.0 L 324.0 476.0 L 325.0 475.0 L 347.0 475.0 L 347.0 372.0 L 348.0 371.0 L 348.0 367.0 L 349.0 366.0 L 349.0 364.0 L 350.0 363.0 L 350.0 361.0 L 351.0 360.0 L 351.0 359.0 L 352.0 358.0 L 352.0 357.0 L 353.0 356.0 L 353.0 355.0 L 354.0 354.0 L 355.0 351.0 L 358.0 348.0 L 358.0 347.0 L 365.0 340.0 L 366.0 340.0 L 368.0 338.0 L 369.0 338.0 L 371.0 336.0 L 372.0 336.0 L 375.0 334.0 L 377.0 334.0 L 378.0 333.0 L 380.0 333.0 L 381.0 332.0 L 384.0 332.0 L 385.0 331.0 L 391.0 331.0 L 392.0 330.0 L 400.0 330.0 L 401.0 331.0 L 407.0 331.0 L 408.0 332.0 L 411.0 332.0 L 412.0 333.0 L 414.0 333.0 L 415.0 334.0 L 416.0 334.0 L 417.0 335.0 L 420.0 336.0 L 422.0 338.0 L 423.0 338.0 L 426.0 341.0 L 427.0 341.0 L 432.0 346.0 L 432.0 347.0 L 435.0 350.0 L 435.0 351.0 L 436.0 352.0 L 436.0 353.0 L 437.0 354.0 L 437.0 355.0 L 440.0 360.0 L 440.0 362.0 L 441.0 363.0 L 441.0 366.0 L 442.0 367.0 L 442.0 371.0 L 443.0 372.0 L 443.0 380.0 L 444.0 381.0 L 444.0 473.0 L 443.0 474.0 L 444.0 475.0 L 600.0 475.0 L 601.0 474.0 L 607.0 474.0 L 608.0 473.0 L 612.0 473.0 L 613.0 472.0 L 616.0 472.0 L 617.0 471.0 L 619.0 471.0 L 620.0 470.0 L 622.0 470.0 L 623.0 469.0 L 625.0 469.0 L 626.0 468.0 L 628.0 468.0 L 631.0 466.0 L 633.0 466.0 L 634.0 465.0 L 635.0 465.0 L 636.0 464.0 L 639.0 463.0 L 641.0 461.0 L 644.0 460.0 L 646.0 458.0 L 647.0 458.0 L 650.0 455.0 L 651.0 455.0 L 663.0 443.0 L 663.0 442.0 L 666.0 439.0 L 666.0 438.0 L 668.0 436.0 L 668.0 435.0 L 669.0 434.0 L 670.0 431.0 L 672.0 429.0 L 672.0 427.0 L 675.0 422.0 L 675.0 420.0 L 676.0 419.0 L 676.0 416.0 L 677.0 415.0 L 677.0 412.0 L 678.0 411.0 L 678.0 406.0 L 679.0 405.0 L 679.0 380.0 L 678.0 379.0 L 678.0 374.0 L 677.0 373.0 L 677.0 371.0 L 676.0 370.0 L 676.0 367.0 L 675.0 366.0 L 675.0 364.0 L 674.0 363.0 L 674.0 361.0 L 673.0 360.0 L 673.0 359.0 L 672.0 358.0 L 672.0 357.0 L 671.0 356.0 L 670.0 353.0 L 668.0 351.0 L 668.0 350.0 L 666.0 348.0 L 666.0 347.0 L 661.0 342.0 L 661.0 341.0 L 658.0 338.0 L 657.0 338.0 L 652.0 333.0 L 651.0 333.0 L 649.0 331.0 L 648.0 331.0 L 643.0 327.0 L 642.0 327.0 L 637.0 324.0 L 635.0 324.0 L 632.0 322.0 L 630.0 322.0 L 629.0 321.0 L 630.0 320.0 L 632.0 320.0 L 633.0 319.0 L 634.0 319.0 L 636.0 317.0 L 637.0 317.0 L 639.0 315.0 L 640.0 315.0 L 642.0 313.0 L 643.0 313.0 L 647.0 309.0 L 648.0 309.0 L 653.0 304.0 L 653.0 303.0 L 659.0 296.0 L 659.0 295.0 L 660.0 294.0 L 660.0 293.0 L 661.0 292.0 L 661.0 291.0 L 664.0 286.0 L 664.0 284.0 L 665.0 283.0 L 665.0 280.0 L 666.0 279.0 L 666.0 276.0 L 667.0 275.0 L 667.0 270.0 L 668.0 269.0 L 668.0 252.0 L 667.0 251.0 L 667.0 245.0 L 666.0 244.0 L 666.0 241.0 L 665.0 240.0 L 665.0 237.0 L 664.0 236.0 L 664.0 234.0 L 662.0 231.0 L 662.0 229.0 L 661.0 228.0 L 661.0 227.0 L 660.0 226.0 Z" fill="#000000" fill-rule="evenodd"/>
</svg>
